<svg xmlns="http://www.w3.org/2000/svg" viewBox="0 0 237.81 59.64"><defs><style>.a,.b{fill:#6366f1;}.b{font-size:47.76px;font-family:BankGothicBT-Medium, BankGothic Md BT;font-weight:500;}.c{letter-spacing:-0.04em;}</style></defs><path class="a" d="M11.14,82.63s-2.78,5.88-2.62,9.3c0,0-.84,7,6,4.29A42,42,0,0,0,26.8,87.88S45.48,69,58.35,46.9l3.28-5.09S64,42.17,47.77,68c0,0-13.41,21.54-26.64,30.22,0,0-11.81,7.6-14.67-.54,0,0-.92-2.59,1-8.19,0,0,1.85-4.59,2.39-5.43C9.89,84.07,10.9,82.41,11.14,82.63Z" transform="translate(-6.24 -41.81)"/><polygon class="a" points="8.23 9.27 21.23 9.27 34.34 25.84 27.76 33.83 8.23 9.27"/><polygon class="a" points="38.04 29.82 32.19 39.31 44.24 54.33 57.11 54.33 38.04 29.82"/><text class="b" transform="translate(49.3 42.08)">pe<tspan class="c" x="59.03" y="0">r</tspan><tspan x="88.37" y="0">tiee</tspan></text></svg>